<svg width="2152" height="1024" viewBox="0 0 2152 1024" fill="none" xmlns="http://www.w3.org/2000/svg">
<rect width="2152" height="1024" fill="url(#paint0_linear)"/>
<g filter="url(#filter0_f)">
<path d="M847.023 363.425C846.528 368.401 846.526 368.401 846.523 368.4L846.515 368.399L846.492 368.397L846.416 368.389C846.386 368.386 846.35 368.382 846.309 368.378C846.261 368.372 846.207 368.366 846.144 368.359C845.912 368.333 845.576 368.293 845.143 368.238C844.276 368.128 843.017 367.955 841.407 367.701C838.187 367.193 833.558 366.358 827.846 365.046C816.426 362.421 800.64 357.878 783.098 350.188C748.026 334.813 705.736 306.762 677.502 256.16C673.466 249.021 665.704 244.825 657.418 245.383C648.439 246.125 641.957 251.241 639.004 258.903L639.002 258.906C617.402 314.824 580.653 350.987 549.371 373.141C533.729 384.218 519.428 391.814 509.012 396.649C503.803 399.067 499.559 400.797 496.599 401.93C495.118 402.496 493.957 402.913 493.157 403.191C492.756 403.33 492.446 403.435 492.23 403.507C492.122 403.543 492.038 403.57 491.978 403.59L491.906 403.613L491.885 403.62L491.877 403.622C491.874 403.623 491.872 403.624 490.362 398.857L491.872 403.624L491.03 403.891L490.147 403.853L459.123 402.521L458.53 402.496L457.959 402.332C450.327 400.142 442.08 402.364 436.635 408.05L436.626 408.06C431.145 413.755 429.361 421.922 431.932 429.256L431.935 429.265C443.609 462.78 480.311 562.824 531.384 652.681C556.932 697.631 585.925 739.758 616.987 769.728C648.132 799.777 680.59 816.888 713.241 813.644C745.891 810.401 774.347 787.238 798.967 751.649C823.523 716.154 843.657 669.147 859.86 620.049C892.25 521.903 908.551 416.596 913.424 381.432C914.449 373.916 911.215 366.435 904.963 361.895C898.667 357.357 890.319 356.537 883.258 359.773L883.229 359.787L883.2 359.8C883.051 359.863 882.827 359.947 882.754 359.972C882.733 359.979 882.705 359.988 882.678 359.997C882.65 360.005 882.624 360.014 882.609 360.018C882.554 360.035 882.51 360.047 882.491 360.052C882.45 360.063 882.414 360.073 882.397 360.077C882.357 360.087 882.314 360.098 882.276 360.108C882.197 360.127 882.089 360.154 881.959 360.186C881.697 360.25 881.321 360.341 880.849 360.455C879.904 360.683 878.563 361.006 876.959 361.392C873.75 362.163 869.484 363.186 865.222 364.208C860.959 365.23 856.701 366.25 853.508 367.014L849.65 367.938L848.569 368.196L848.285 368.265L848.212 368.282L848.193 368.286L848.188 368.288L848.187 368.288C848.187 368.288 848.187 368.288 847.023 363.425ZM847.023 363.425L846.528 368.401L847.367 368.484L848.187 368.288L847.023 363.425Z" fill="url(#paint1_radial)" stroke="url(#paint2_linear)" stroke-width="10"/>
</g>
<g filter="url(#filter1_b)">
<path d="M661.833 459.631C669.834 450.353 683.703 448.975 693.373 456.498L742.612 494.803C749.142 499.883 752.441 508.078 751.251 516.265L739.629 596.211C738.109 606.669 729.658 614.745 719.142 615.789L667.907 620.879C657.391 621.924 647.517 615.668 643.969 605.714L616.846 529.617C614.068 521.824 615.69 513.14 621.092 506.875L661.833 459.631Z" fill="url(#paint3_linear)"/>
</g>
<path d="M1071.02 161.432C1070.62 164.993 1069.55 168.156 1067.81 170.922C1066.15 173.631 1064.03 175.9 1061.43 177.731C1058.9 179.568 1055.99 180.878 1052.68 181.66C1049.43 182.449 1045.99 182.637 1042.37 182.224C1039.83 181.933 1037.36 180.976 1034.97 179.35C1032.58 177.661 1030.39 175.188 1028.37 171.931L1037.01 158.906C1037.36 159.783 1037.93 160.718 1038.72 161.71C1039.51 162.638 1040.42 163.482 1041.42 164.241C1042.5 165.007 1043.55 165.674 1044.58 166.243C1045.68 166.755 1046.67 167.062 1047.57 167.163C1048.33 167.25 1049.14 167.214 1049.99 167.054C1050.85 166.894 1051.66 166.599 1052.41 166.17C1053.17 165.741 1053.78 165.23 1054.23 164.638C1054.76 163.989 1055.07 163.22 1055.17 162.33C1055.34 160.804 1054.99 159.347 1054.12 157.959C1053.32 156.515 1052.25 155.137 1050.92 153.826C1049.6 152.451 1048.15 151.061 1046.57 149.657C1044.99 148.253 1043.54 146.8 1042.23 145.298C1040.99 143.803 1039.95 142.171 1039.12 140.402C1038.29 138.633 1037.99 136.731 1038.22 134.696C1038.6 131.389 1039.94 128.418 1042.24 125.781C1044.53 123.144 1047.26 120.975 1050.42 119.274C1053.65 117.516 1057.08 116.233 1060.71 115.424C1064.35 114.614 1067.72 114.387 1070.84 114.743C1072.56 114.938 1074.15 115.346 1075.63 115.965C1077.11 116.52 1078.34 117.337 1079.31 118.414C1080.35 119.435 1081.11 120.681 1081.59 122.152C1082.13 123.631 1082.28 125.419 1082.04 127.518C1081.94 128.408 1081.74 129.287 1081.45 130.156C1081.22 131.032 1080.98 131.971 1080.74 132.974L1066.45 135.403C1066.64 134.909 1066.79 134.411 1066.91 133.909C1067.1 133.415 1067.22 132.914 1067.28 132.405C1067.5 130.497 1067.3 129.09 1066.7 128.184C1066.16 127.221 1065.35 126.678 1064.27 126.555C1063.76 126.497 1063.11 126.615 1062.3 126.91C1061.56 127.211 1060.77 127.637 1059.93 128.186C1059.17 128.678 1058.48 129.309 1057.88 130.077C1057.28 130.846 1056.92 131.707 1056.81 132.661C1056.64 134.187 1056.91 135.506 1057.62 136.618C1058.39 137.737 1059.37 138.814 1060.54 139.849C1061.71 140.884 1062.97 141.962 1064.32 143.083C1065.75 144.147 1067.01 145.483 1068.12 147.09C1069.22 148.698 1070.06 150.662 1070.63 152.981C1071.28 155.245 1071.41 158.062 1071.02 161.432ZM1113.63 171.316C1112.33 174.839 1110.71 177.778 1108.76 180.133C1106.88 182.495 1104.74 184.376 1102.32 185.775C1099.97 187.182 1097.51 188.125 1094.95 188.606C1092.38 189.086 1089.86 189.185 1087.38 188.902C1085.91 188.735 1084.45 188.31 1082.98 187.628C1081.51 187.008 1080.22 186.153 1079.12 185.061C1078.02 183.97 1077.14 182.646 1076.48 181.089C1075.88 179.539 1075.7 177.779 1075.92 175.808C1075.95 175.553 1075.98 175.299 1076.01 175.045C1076.04 174.79 1076.1 174.54 1076.19 174.293C1076.74 171.714 1077.52 168.614 1078.51 164.991C1079.5 161.368 1080.54 157.59 1081.64 153.657C1082.73 149.723 1083.89 145.797 1085.11 141.878C1086.33 137.895 1087.42 134.283 1088.37 131.042C1089.38 127.808 1090.24 125.135 1090.93 123.024C1091.63 120.849 1092.07 119.515 1092.25 119.02C1093.6 119.046 1095.21 119.068 1097.08 119.087C1098.94 119.107 1100.68 119.144 1102.28 119.198C1104.27 119.232 1106.24 119.262 1108.17 119.289C1105.63 126.795 1103.38 133.591 1101.4 139.677C1100.52 142.283 1099.64 144.888 1098.77 147.494C1097.95 150.106 1097.16 152.496 1096.4 154.664C1095.7 156.839 1095.07 158.731 1094.5 160.341C1094 161.894 1093.56 163.165 1093.19 164.154C1092.89 165.149 1092.48 166.424 1091.98 167.977C1091.56 169.474 1091.27 170.859 1091.12 172.131C1091.01 173.148 1091.17 174.035 1091.59 174.793C1092.03 175.487 1092.63 175.877 1093.39 175.964C1094.47 176.087 1095.41 175.776 1096.21 175.029C1097.01 174.218 1097.7 173.234 1098.28 172.077C1098.93 170.927 1099.41 169.759 1099.74 168.572C1100.14 167.329 1100.48 166.369 1100.75 165.691C1101.34 163.891 1101.99 161.903 1102.68 159.728C1103.45 157.497 1104.2 155.199 1104.92 152.833C1105.71 150.411 1106.47 147.954 1107.21 145.461C1108.01 142.976 1108.77 140.55 1109.49 138.185C1111.21 132.712 1112.92 127.045 1114.62 121.184L1129.22 121.884C1129.22 121.884 1128.97 122.692 1128.46 124.309C1127.96 125.926 1127.29 128.073 1126.47 130.749C1125.65 133.425 1124.72 136.476 1123.69 139.901C1122.72 143.333 1121.63 146.913 1120.44 150.641C1119.25 154.306 1118.06 157.939 1116.87 161.54C1115.76 165.085 1114.68 168.343 1113.63 171.316ZM1113.77 189.592C1117.53 181.454 1121.15 173.461 1124.62 165.611C1126.09 162.301 1127.61 158.835 1129.19 155.214C1130.76 151.593 1132.33 148.003 1133.89 144.446C1135.46 140.888 1136.91 137.447 1138.26 134.122C1139.67 130.804 1140.92 127.726 1142.02 124.888C1145.51 125.287 1148.84 125.473 1152 125.447C1155.16 125.421 1158.57 125.456 1162.23 125.551C1161.88 126.928 1161.48 128.492 1161.02 130.244C1160.63 131.939 1160.17 133.722 1159.64 135.594C1159.16 137.472 1158.65 139.411 1158.1 141.409C1157.55 143.408 1156.87 145.972 1156.07 149.1C1155.26 152.229 1154.2 156.134 1152.9 160.816L1154.14 160.958C1156.53 156.335 1158.51 152.503 1160.08 149.462C1161.66 146.356 1162.95 143.83 1163.94 141.882C1164.94 139.934 1165.93 138.05 1166.91 136.23C1167.96 134.353 1168.93 132.596 1169.83 130.958C1170.79 129.265 1171.67 127.787 1172.46 126.524C1174.06 126.578 1175.58 126.59 1177 126.558C1178.42 126.527 1179.84 126.496 1181.26 126.465C1182.69 126.37 1184.11 126.307 1185.53 126.275C1187.02 126.188 1188.64 126.083 1190.4 125.961C1189.34 129.576 1188.31 133.291 1187.29 137.105C1186.28 140.918 1185.33 144.739 1184.44 148.567C1183.56 152.332 1182.68 156.064 1181.81 159.765C1181 163.474 1180.24 166.995 1179.54 170.329C1177.88 178.126 1176.33 185.744 1174.91 193.183L1157.97 194.247C1158.01 193.929 1158.14 193.074 1158.36 191.682C1158.65 190.298 1158.97 188.596 1159.33 186.575C1159.75 184.562 1160.23 182.33 1160.77 179.879C1161.37 177.436 1161.94 174.988 1162.48 172.537C1163.08 170.094 1163.67 167.745 1164.25 165.492C1164.83 163.176 1165.38 161.209 1165.89 159.592L1165.03 159.494C1163.83 162.063 1162.52 164.781 1161.1 167.646C1159.69 170.448 1158.23 173.31 1156.74 176.231C1155.31 179.16 1153.89 182.026 1152.48 184.827C1151.06 187.629 1149.79 190.318 1148.66 192.895C1146.42 192.704 1144.51 192.582 1142.9 192.528C1141.3 192.411 1139.45 192.296 1137.34 192.184L1144.42 157.145L1142.99 156.982C1142.77 157.794 1142.3 159.157 1141.56 161.07C1140.84 162.919 1139.98 165.076 1138.99 167.54C1138.07 169.947 1137.07 172.475 1136 175.122C1134.93 177.706 1133.91 180.134 1132.94 182.407C1132.05 184.624 1131.29 186.47 1130.67 187.945C1130.06 189.357 1129.71 190.154 1129.62 190.338L1113.77 189.592ZM1177.59 196.87C1181.35 188.732 1184.97 180.739 1188.44 172.889C1189.91 169.579 1191.44 166.113 1193.01 162.492C1194.58 158.871 1196.15 155.281 1197.72 151.724C1199.28 148.166 1200.74 144.725 1202.08 141.4C1203.49 138.082 1204.74 135.004 1205.84 132.166C1209.34 132.565 1212.67 132.752 1215.82 132.725C1218.98 132.699 1222.39 132.734 1226.05 132.829C1225.7 134.206 1225.3 135.771 1224.84 137.522C1224.46 139.217 1224 141 1223.46 142.872C1222.99 144.75 1222.48 146.689 1221.93 148.688C1221.38 150.686 1220.7 153.25 1219.89 156.378C1219.08 159.507 1218.03 163.412 1216.72 168.094L1217.96 168.236C1220.35 163.613 1222.34 159.781 1223.91 156.74C1225.49 153.635 1226.77 151.108 1227.77 149.16C1228.76 147.212 1229.75 145.328 1230.73 143.508C1231.78 141.631 1232.76 139.874 1233.65 138.237C1234.62 136.543 1235.49 135.065 1236.28 133.802C1237.89 133.856 1239.4 133.868 1240.82 133.836C1242.24 133.805 1243.66 133.774 1245.08 133.743C1246.51 133.648 1247.93 133.585 1249.35 133.554C1250.85 133.466 1252.47 133.361 1254.22 133.239C1253.17 136.855 1252.13 140.569 1251.12 144.383C1250.1 148.196 1249.15 152.017 1248.26 155.845C1247.38 159.61 1246.51 163.343 1245.63 167.044C1244.82 170.752 1244.07 174.273 1243.36 177.607C1241.7 185.405 1240.16 193.023 1238.73 200.461L1221.8 201.525C1221.83 201.207 1221.96 200.352 1222.19 198.96C1222.47 197.576 1222.79 195.874 1223.15 193.853C1223.58 191.84 1224.06 189.608 1224.59 187.157C1225.19 184.714 1225.76 182.266 1226.3 179.815C1226.9 177.372 1227.49 175.024 1228.07 172.771C1228.66 170.454 1229.2 168.487 1229.71 166.87L1228.85 166.772C1227.66 169.342 1226.35 172.059 1224.93 174.924C1223.51 177.726 1222.06 180.588 1220.57 183.509C1219.14 186.438 1217.71 189.304 1216.3 192.106C1214.89 194.907 1213.61 197.596 1212.48 200.173C1210.25 199.983 1208.33 199.86 1206.73 199.806C1205.13 199.689 1203.27 199.574 1201.16 199.462L1208.25 164.423L1206.82 164.26C1206.6 165.072 1206.12 166.435 1205.39 168.348C1204.66 170.198 1203.8 172.354 1202.81 174.818C1201.89 177.225 1200.9 179.753 1199.82 182.4C1198.75 184.984 1197.74 187.412 1196.77 189.685C1195.87 191.902 1195.11 193.748 1194.49 195.223C1193.88 196.635 1193.53 197.432 1193.45 197.616L1177.59 196.87ZM1303.51 159.537C1302.91 164.751 1301.78 169.614 1300.11 174.125C1298.5 178.58 1296.56 182.642 1294.27 186.31C1291.99 189.915 1289.44 193.103 1286.61 195.872C1283.85 198.585 1281.02 200.87 1278.1 202.728C1275.19 204.522 1272.3 205.835 1269.44 206.668C1266.58 207.437 1263.91 207.68 1261.43 207.397C1259.33 207.158 1257.47 206.559 1255.84 205.6C1254.22 204.578 1252.86 203.231 1251.76 201.56C1250.67 199.825 1249.88 197.706 1249.39 195.203C1248.97 192.643 1248.96 189.646 1249.35 186.213C1249.76 182.652 1250.63 178.951 1251.97 175.11C1253.31 171.269 1254.97 167.496 1256.94 163.791C1258.9 160.086 1261.2 156.612 1263.82 153.369C1266.45 150.125 1269.25 147.32 1272.22 144.954C1275.21 142.524 1278.31 140.689 1281.55 139.447C1284.78 138.205 1288.05 137.773 1291.36 138.15C1294.22 138.476 1296.5 139.349 1298.21 140.767C1299.99 142.129 1301.28 143.822 1302.07 145.846C1302.95 147.813 1303.47 149.999 1303.65 152.402C1303.82 154.806 1303.78 157.184 1303.51 159.537ZM1263.85 185.353C1263.77 186.053 1263.81 186.799 1263.98 187.591C1264.15 188.383 1264.42 189.09 1264.8 189.713C1265.18 190.336 1265.66 190.907 1266.25 191.424C1266.9 191.886 1267.61 192.16 1268.38 192.247C1271.24 192.573 1273.89 191.877 1276.34 190.16C1278.79 188.443 1280.91 186.237 1282.7 183.542C1284.49 180.847 1285.95 177.922 1287.09 174.766C1288.28 171.617 1289.03 168.708 1289.34 166.037C1289.42 165.274 1289.45 164.44 1289.43 163.535C1289.47 162.638 1289.37 161.789 1289.14 160.99C1288.97 160.198 1288.6 159.511 1288.02 158.93C1287.52 158.292 1286.75 157.916 1285.74 157.8C1283.7 157.568 1281.77 157.862 1279.93 158.684C1278.1 159.506 1276.39 160.695 1274.79 162.253C1273.27 163.754 1271.87 165.527 1270.61 167.573C1269.35 169.555 1268.22 171.616 1267.2 173.754C1266.25 175.837 1265.5 177.909 1264.95 179.971C1264.39 182.033 1264.02 183.827 1263.85 185.353ZM1296.44 211.486C1299.39 202.547 1302.22 193.883 1304.91 185.495C1305.97 181.879 1307.07 178.14 1308.22 174.277C1309.43 170.422 1310.58 166.623 1311.65 162.88C1312.72 159.074 1313.72 155.451 1314.62 152.012C1315.54 148.509 1316.29 145.341 1316.87 142.509C1317.69 142.666 1318.38 142.778 1318.96 142.843C1319.53 142.908 1320.2 142.985 1320.96 143.072C1321.85 143.173 1322.93 143.296 1324.2 143.441C1325.48 143.523 1326.76 143.604 1328.04 143.686C1329.32 143.767 1330.69 143.86 1332.16 143.963C1332.54 148.515 1332.85 152.898 1333.08 157.111C1333.36 160.815 1333.64 164.615 1333.9 168.51C1334.23 172.412 1334.53 175.732 1334.8 178.468C1335.2 177.225 1335.65 175.795 1336.16 174.178C1336.67 172.497 1337.22 170.757 1337.81 168.956C1338.41 167.156 1338.97 165.351 1339.49 163.544C1340.09 161.679 1340.69 159.847 1341.28 158.047C1342.64 154.015 1344.05 149.86 1345.5 145.581L1357.3 145.477C1354.03 154.959 1351.07 163.962 1348.43 172.485C1347.24 176.15 1346.04 179.878 1344.83 183.67C1343.7 187.406 1342.61 191.017 1341.57 194.506C1340.53 197.931 1339.62 201.144 1338.83 204.145C1338.04 207.083 1337.4 209.555 1336.92 211.561C1336.73 211.539 1335.95 211.611 1334.57 211.777C1333.27 211.886 1331.74 212.034 1329.98 212.219C1328.29 212.412 1326.56 212.602 1324.8 212.787C1323.1 212.98 1321.82 213.189 1320.96 213.412C1321.16 208.282 1321.29 203.402 1321.37 198.773C1321.4 196.78 1321.41 194.752 1321.39 192.688C1321.44 190.568 1321.44 188.539 1321.41 186.603C1321.37 184.666 1321.32 182.856 1321.25 181.174C1321.19 179.492 1321.09 178.032 1320.98 176.795C1320.65 177.981 1320.24 179.351 1319.74 180.905C1319.24 182.458 1318.73 184.107 1318.21 185.851C1317.68 187.595 1317.15 189.435 1316.61 191.37C1316.07 193.241 1315.51 195.046 1314.93 196.782C1313.62 200.949 1312.22 205.298 1310.74 209.831L1296.44 211.486ZM1375.89 220.159C1378.15 213.331 1380.33 206.592 1382.44 199.94C1383.34 197.144 1384.26 194.221 1385.18 191.17C1386.11 188.119 1387 185.129 1387.85 182.198C1388.77 179.211 1389.58 176.341 1390.28 173.586C1391.05 170.776 1391.73 168.212 1392.32 165.895C1390.88 165.538 1389.39 165.304 1387.86 165.193C1386.39 165.09 1384.94 164.733 1383.53 164.121C1383.71 163.111 1383.88 161.938 1384.03 160.603C1384.18 159.267 1384.37 157.936 1384.58 156.607C1384.81 155.152 1385.05 153.602 1385.31 151.956C1386.95 152.271 1388.59 152.555 1390.23 152.807C1391.88 153.059 1393.53 153.28 1395.18 153.468C1398.43 153.838 1401.55 154.13 1404.55 154.343C1407.63 154.501 1410.45 154.629 1413.01 154.728C1415.65 154.771 1418.22 154.775 1420.74 154.74L1419.1 159.771C1418.62 161.197 1418.13 162.655 1417.64 164.145C1417.21 165.642 1416.81 166.917 1416.43 167.969C1414.99 168.191 1413.52 168.314 1412.04 168.338C1410.63 168.305 1409.2 168.337 1407.78 168.431C1407.09 170.543 1406.33 172.905 1405.52 175.517C1404.71 178.066 1403.89 180.743 1403.06 183.546C1402.29 186.293 1401.52 189.104 1400.74 191.978C1399.96 194.852 1399.2 197.6 1398.45 200.22C1396.72 206.399 1395.02 212.808 1393.36 219.447L1375.89 220.159ZM1407.38 223.847C1410.18 215.148 1412.88 206.664 1415.5 198.396C1416.55 194.844 1417.65 191.168 1418.79 187.369C1419.94 183.506 1421.01 179.7 1422.02 175.95C1423.09 172.207 1424.09 168.584 1425 165.081C1425.99 161.522 1426.8 158.298 1427.46 155.409C1428.91 155.64 1430.24 155.887 1431.43 156.152C1432.69 156.361 1433.93 156.566 1435.13 156.767C1436.33 156.969 1437.53 157.17 1438.73 157.371C1440 157.516 1441.37 157.672 1442.83 157.839C1441.24 162.23 1439.64 166.622 1438.04 171.013C1436.51 175.412 1435.04 179.85 1433.63 184.327L1443.19 184.354C1444.59 179.941 1445.89 175.676 1447.06 171.559C1448.25 167.378 1449.67 163.096 1451.33 158.712C1452.82 158.624 1454.47 158.618 1456.26 158.694C1458.06 158.706 1459.73 158.736 1461.28 158.783C1462.82 158.83 1464.1 158.879 1465.12 158.932C1466.22 158.928 1466.77 158.926 1466.77 158.926C1465.55 161.686 1464.33 164.735 1463.11 168.075C1461.97 171.358 1460.8 174.8 1459.62 178.401C1458.44 181.939 1457.29 185.543 1456.16 189.215C1455.04 192.887 1453.99 196.376 1453.04 199.681C1450.72 207.597 1448.47 215.715 1446.3 224.034L1431.22 224.054C1432.48 220.333 1433.64 216.697 1434.69 213.145C1435.67 210.165 1436.67 207.058 1437.68 203.824C1438.76 200.597 1439.62 197.829 1440.27 195.52L1430.92 195.323C1430.2 197.689 1429.34 200.425 1428.35 203.532C1427.41 206.646 1426.53 209.605 1425.69 212.408C1424.6 215.762 1423.51 219.116 1422.42 222.47L1407.38 223.847ZM1454.26 229.097L1474.49 162.705L1504.93 163.567C1504.32 164.915 1503.78 166.303 1503.29 167.729C1502.84 168.901 1502.37 170.136 1501.9 171.435C1501.5 172.678 1501.15 173.797 1500.84 174.793C1500.2 174.784 1499.27 174.742 1498.06 174.668C1496.91 174.538 1495.67 174.428 1494.32 174.339C1492.99 174.187 1491.62 174.031 1490.22 173.872C1488.89 173.719 1487.71 173.585 1486.69 173.469L1481.41 190.162C1483.39 190.26 1485.25 190.374 1486.97 190.507C1488.38 190.603 1489.81 190.734 1491.28 190.901C1492.74 191.067 1493.82 191.159 1494.53 191.175C1494.07 192.927 1493.62 194.646 1493.17 196.334C1492.78 198.029 1492.33 199.749 1491.81 201.493C1491.16 201.484 1490.11 201.428 1488.64 201.325C1487.24 201.165 1485.81 201.034 1484.34 200.931C1482.68 200.806 1480.86 200.663 1478.88 200.502L1473.63 217.682L1487.81 217.076L1485.62 227.841L1454.26 229.097ZM1514.94 236.016L1535.17 169.624L1565.6 170.486C1565 171.834 1564.45 173.222 1563.97 174.648C1563.51 175.82 1563.05 177.055 1562.58 178.354C1562.18 179.597 1561.83 180.716 1561.52 181.712C1560.88 181.703 1559.95 181.662 1558.73 181.587C1557.59 181.457 1556.34 181.347 1555 181.259C1553.66 181.106 1552.3 180.95 1550.9 180.791C1549.56 180.639 1548.39 180.504 1547.37 180.388L1542.08 197.081C1544.07 197.179 1545.93 197.294 1547.65 197.426C1549.06 197.522 1550.49 197.653 1551.95 197.82C1553.41 197.987 1554.5 198.078 1555.21 198.094C1554.75 199.846 1554.3 201.565 1553.84 203.253C1553.46 204.948 1553 206.668 1552.48 208.412C1551.84 208.403 1550.78 208.347 1549.31 208.244C1547.92 208.085 1546.48 207.953 1545.01 207.85C1543.35 207.725 1541.53 207.582 1539.55 207.421L1534.31 224.601L1548.48 223.995L1546.29 234.76L1514.94 236.016ZM1556.99 241.585C1558.83 232.777 1560.59 224.12 1562.27 215.616C1563 212.091 1563.71 208.372 1564.42 204.459C1565.18 200.552 1565.88 196.703 1566.51 192.909C1567.2 189.059 1567.82 185.361 1568.35 181.815C1568.89 178.205 1569.36 174.909 1569.77 171.928C1571.29 172.102 1572.92 172.255 1574.64 172.387C1576.43 172.526 1578.03 172.644 1579.43 172.74C1580.9 172.843 1582.15 172.921 1583.18 172.973C1584.21 172.962 1584.72 172.957 1584.72 172.957C1583.18 180.253 1581.89 186.257 1580.83 190.968C1579.79 195.615 1578.94 199.415 1578.28 202.368C1577.69 205.264 1577.11 208.064 1576.55 210.77C1576.04 213.482 1575.53 216 1575.01 218.324C1574.49 220.648 1574.03 222.625 1573.66 224.257L1575.37 224.453L1591.84 174.928C1593.57 175.06 1595.33 175.164 1597.12 175.24C1598.72 175.294 1600.39 175.387 1602.11 175.519C1603.9 175.659 1605.54 175.717 1607.02 175.693C1605.81 178.389 1604.54 181.368 1603.2 184.629C1601.92 187.898 1600.57 191.286 1599.14 194.795C1597.77 198.311 1596.4 201.89 1595.02 205.533C1593.7 209.183 1592.4 212.706 1591.11 216.102C1588.14 224.073 1585.14 232.266 1582.12 240.682L1556.99 241.585ZM1608.81 244.691C1608.23 244.626 1607.08 244.591 1605.34 244.586C1603.67 244.524 1601.93 244.519 1600.12 244.571C1598.32 244.558 1596.68 244.564 1595.19 244.588C1593.77 244.619 1593 244.66 1592.86 244.709C1593.81 242.047 1594.79 239.099 1595.8 235.865C1596.89 232.575 1597.98 229.157 1599.1 225.612C1600.22 222.004 1601.31 218.36 1602.37 214.681C1603.44 211.002 1604.45 207.446 1605.42 204.014C1607.69 196.027 1609.98 187.818 1612.29 179.386L1627.44 178.698C1625.01 187.052 1622.62 195.25 1620.29 203.294C1619.32 206.726 1618.3 210.281 1617.24 213.961C1616.24 217.647 1615.21 221.298 1614.15 224.914C1613.16 228.536 1612.21 232.068 1611.3 235.507C1610.4 238.883 1609.57 241.944 1608.81 244.691ZM1643.1 247.442C1641.13 247.217 1639.02 247.042 1636.78 246.915C1634.6 246.796 1632.39 246.736 1630.13 246.737C1627.88 246.737 1625.65 246.837 1623.43 247.035C1621.29 247.178 1619.33 247.437 1617.55 247.814C1618.25 244.996 1619.06 241.867 1619.97 238.428C1620.88 234.988 1621.86 231.429 1622.93 227.75C1624.05 224.078 1625.15 220.371 1626.22 216.628C1627.36 212.892 1628.47 209.316 1629.57 205.898C1632.11 197.75 1634.77 189.453 1637.53 181.008L1654.47 180.717C1651.92 187.898 1649.44 194.895 1647.06 201.708C1646.02 204.617 1644.96 207.653 1643.89 210.816C1642.83 213.916 1641.81 216.956 1640.82 219.935C1639.84 222.915 1638.93 225.807 1638.09 228.61C1637.26 231.413 1636.56 233.91 1635.98 236.099C1637.59 236.153 1639.28 236.282 1641.06 236.485C1642.91 236.632 1644.54 236.785 1645.94 236.944C1645.86 238.16 1645.82 239.379 1645.81 240.601C1645.81 241.76 1645.81 242.824 1645.83 243.792C1645.91 244.768 1645.94 245.641 1645.92 246.411C1645.97 247.125 1646.01 247.613 1646.04 247.875C1645.53 247.817 1645.03 247.759 1644.52 247.701C1644.08 247.586 1643.61 247.5 1643.1 247.442ZM1677.24 254.814L1692.21 187.92C1695.22 188.133 1698.05 188.166 1700.7 188.018C1703.43 187.814 1706.11 187.765 1708.74 187.872C1708.73 187.935 1708.56 188.592 1708.23 189.842C1707.9 191.029 1707.46 192.621 1706.91 194.62C1706.36 196.555 1705.76 198.772 1705.09 201.272C1704.42 203.709 1703.46 207.077 1702.19 211.378C1700.99 215.685 1699.35 221.649 1697.26 229.269L1698.69 229.432C1701.01 223.771 1702.92 219.158 1704.42 215.593C1705.93 211.964 1707.13 209.042 1708.03 206.825C1709 204.552 1709.89 202.367 1710.71 200.271C1711.59 198.181 1712.39 196.243 1713.11 194.457C1713.89 192.679 1714.52 191.171 1714.98 189.936L1715.84 190.034C1716.98 190.164 1718.13 190.231 1719.29 190.235C1720.51 190.245 1721.64 190.245 1722.67 190.234C1723.78 190.166 1724.91 190.071 1726.09 189.947C1725.9 190.505 1725.6 191.663 1725.21 193.422C1724.88 195.187 1724.44 197.328 1723.9 199.842C1723.36 202.293 1722.79 205.03 1722.19 208.053C1721.59 211.013 1721 213.941 1720.41 216.837C1719.83 219.669 1719.27 222.375 1718.71 224.953C1718.23 227.538 1717.78 229.742 1717.38 231.564L1719.1 231.76L1732.84 191.779C1735.03 191.708 1737.2 191.664 1739.32 191.649C1741.2 191.605 1743.13 191.569 1745.13 191.539C1747.13 191.509 1748.92 191.423 1750.48 191.279C1749.22 193.841 1747.93 196.721 1746.59 199.918C1745.27 203.053 1743.89 206.374 1742.46 209.882C1741.03 213.391 1739.63 216.935 1738.26 220.514C1736.94 224.101 1735.65 227.56 1734.37 230.892C1731.4 238.8 1728.48 246.937 1725.59 255.303L1703.62 256.47L1712.02 220.131L1710.87 220L1697.48 253.547L1677.24 254.814ZM1751.86 261.004C1751.29 260.939 1750.13 260.904 1748.39 260.899C1746.73 260.837 1744.99 260.832 1743.18 260.884C1741.38 260.871 1739.73 260.877 1738.25 260.901C1736.83 260.933 1736.05 260.973 1735.92 261.022C1736.86 258.36 1737.84 255.412 1738.86 252.178C1739.94 248.888 1741.04 245.47 1742.15 241.925C1743.27 238.317 1744.36 234.673 1745.43 230.994C1746.49 227.315 1747.51 223.759 1748.48 220.327C1750.74 212.34 1753.03 204.131 1755.35 195.699L1770.5 195.011C1768.06 203.365 1765.68 211.564 1763.34 219.607C1762.37 223.039 1761.36 226.595 1760.29 230.274C1759.29 233.96 1758.26 237.611 1757.21 241.227C1756.21 244.85 1755.26 248.381 1754.36 251.82C1753.46 255.196 1752.62 258.257 1751.86 261.004ZM1768.05 264.88C1770.31 258.052 1772.5 251.312 1774.61 244.66C1775.51 241.864 1776.42 238.941 1777.35 235.89C1778.28 232.84 1779.16 229.849 1780.01 226.919C1780.93 223.932 1781.74 221.061 1782.44 218.307C1783.22 215.496 1783.89 212.932 1784.48 210.616C1783.04 210.258 1781.55 210.024 1780.02 209.914C1778.55 209.811 1777.11 209.453 1775.7 208.841C1775.88 207.831 1776.04 206.658 1776.2 205.323C1776.35 203.988 1776.53 202.656 1776.75 201.328C1776.98 199.872 1777.22 198.322 1777.47 196.676C1779.11 196.992 1780.75 197.275 1782.4 197.528C1784.04 197.78 1785.69 198 1787.35 198.189C1790.59 198.558 1793.71 198.85 1796.72 199.064C1799.79 199.221 1802.61 199.349 1805.18 199.449C1807.81 199.492 1810.39 199.495 1812.9 199.46L1811.27 204.491C1810.78 205.918 1810.29 207.376 1809.8 208.865C1809.37 210.363 1808.97 211.637 1808.59 212.689C1807.15 212.911 1805.69 213.034 1804.2 213.058C1802.79 213.026 1801.37 213.057 1799.94 213.152C1799.25 215.263 1798.5 217.625 1797.68 220.238C1796.88 222.787 1796.06 225.463 1795.22 228.266C1794.46 231.014 1793.69 233.824 1792.91 236.699C1792.13 239.573 1791.37 242.32 1790.62 244.94C1788.88 251.119 1787.18 257.528 1785.52 264.167L1768.05 264.88ZM1799.55 268.568C1802.34 259.868 1805.05 251.384 1807.67 243.116C1808.71 239.564 1809.81 235.888 1810.95 232.089C1812.1 228.227 1813.18 224.42 1814.19 220.67C1815.26 216.927 1816.25 213.305 1817.17 209.802C1818.15 206.242 1818.97 203.018 1819.62 200.13C1821.08 200.36 1822.4 200.608 1823.59 200.873C1824.86 201.081 1826.09 201.286 1827.29 201.488C1828.49 201.689 1829.69 201.89 1830.9 202.092C1832.17 202.237 1833.53 202.393 1835 202.559C1833.4 206.951 1831.8 211.342 1830.21 215.734C1828.68 220.132 1827.2 224.57 1825.79 229.047L1835.35 229.075C1836.76 224.661 1838.05 220.396 1839.23 216.279C1840.41 212.099 1841.84 207.816 1843.5 203.432C1844.99 203.344 1846.63 203.339 1848.43 203.414C1850.23 203.427 1851.9 203.456 1853.44 203.503C1854.98 203.55 1856.26 203.6 1857.29 203.652C1858.38 203.648 1858.93 203.646 1858.93 203.646C1857.71 206.406 1856.5 209.456 1855.28 212.795C1854.13 216.078 1852.97 219.521 1851.78 223.122C1850.61 226.659 1849.45 230.264 1848.33 233.936C1847.2 237.608 1846.16 241.096 1845.2 244.401C1842.88 252.317 1840.64 260.435 1838.46 268.754L1823.39 268.774C1824.65 265.053 1825.8 261.417 1826.85 257.865C1827.84 254.885 1828.84 251.778 1829.85 248.544C1830.93 245.317 1831.79 242.549 1832.44 240.24L1823.09 240.044C1822.37 242.409 1821.51 245.145 1820.51 248.252C1819.58 251.366 1818.69 254.325 1817.86 257.129C1816.76 260.483 1815.67 263.837 1814.58 267.191L1799.55 268.568ZM1862.11 273.576C1861.54 273.511 1860.38 273.476 1858.64 273.471C1856.97 273.41 1855.23 273.405 1853.43 273.456C1851.62 273.444 1849.98 273.449 1848.5 273.473C1847.08 273.505 1846.3 273.545 1846.16 273.594C1847.11 270.932 1848.09 267.984 1849.1 264.75C1850.19 261.46 1851.29 258.042 1852.4 254.497C1853.52 250.889 1854.61 247.245 1855.67 243.566C1856.74 239.887 1857.76 236.331 1858.73 232.899C1860.99 224.912 1863.28 216.703 1865.59 208.271L1880.74 207.583C1878.31 215.937 1875.93 224.136 1873.59 232.179C1872.62 235.611 1871.6 239.167 1870.54 242.846C1869.54 246.532 1868.51 250.183 1867.45 253.799C1866.46 257.422 1865.51 260.953 1864.6 264.392C1863.7 267.768 1862.87 270.829 1862.11 273.576ZM1870.15 276.909C1873.1 267.97 1875.92 259.306 1878.62 250.917C1879.68 247.302 1880.78 243.562 1881.93 239.7C1883.14 235.844 1884.28 232.045 1885.35 228.303C1886.43 224.496 1887.42 220.873 1888.33 217.434C1889.25 213.931 1889.99 210.763 1890.57 207.931C1891.39 208.089 1892.09 208.2 1892.66 208.266C1893.23 208.331 1893.9 208.407 1894.67 208.494C1895.56 208.596 1896.64 208.719 1897.91 208.864C1899.19 208.945 1900.47 209.027 1901.75 209.108C1903.02 209.19 1904.4 209.282 1905.87 209.385C1906.25 213.938 1906.56 218.321 1906.78 222.534C1907.07 226.238 1907.35 230.037 1907.61 233.933C1907.94 237.835 1908.24 241.154 1908.5 243.89C1908.9 242.647 1909.36 241.217 1909.86 239.6C1910.38 237.92 1910.93 236.179 1911.52 234.378C1912.11 232.578 1912.67 230.774 1913.2 228.966C1913.8 227.102 1914.4 225.27 1914.99 223.469C1916.35 219.437 1917.76 215.282 1919.21 211.003L1931.01 210.899C1927.74 220.382 1924.78 229.385 1922.13 237.908C1920.94 241.572 1919.74 245.301 1918.54 249.092C1917.4 252.828 1916.32 256.44 1915.27 259.928C1914.24 263.353 1913.33 266.566 1912.53 269.568C1911.75 272.506 1911.11 274.977 1910.62 276.983C1910.43 276.961 1909.65 277.033 1908.28 277.199C1906.98 277.308 1905.45 277.456 1903.69 277.642C1901.99 277.835 1900.26 278.024 1898.5 278.21C1896.81 278.403 1895.53 278.611 1894.66 278.835C1894.86 273.704 1895 268.824 1895.08 264.195C1895.11 262.202 1895.12 260.174 1895.09 258.11C1895.14 255.99 1895.15 253.962 1895.11 252.025C1895.08 250.088 1895.02 248.279 1894.96 246.597C1894.89 244.914 1894.8 243.455 1894.68 242.217C1894.36 243.404 1893.94 244.774 1893.44 246.327C1892.94 247.881 1892.43 249.529 1891.91 251.274C1891.39 253.018 1890.86 254.857 1890.32 256.792C1889.78 258.664 1889.22 260.468 1888.64 262.205C1887.32 266.371 1885.93 270.721 1884.44 275.254L1870.15 276.909Z" fill="url(#paint4_linear)"/>
<g clip-path="url(#clip0)">
<path d="M1284.55 727.275C1284.55 724.447 1283.43 721.729 1281.43 719.729L1251.26 689.557C1247.09 685.386 1240.33 685.386 1236.17 689.557L1140.21 785.525C1136.05 789.681 1136.05 796.431 1140.21 800.603L1170.38 830.774C1174.55 834.929 1181.3 834.929 1185.47 830.774L1281.43 734.806C1283.43 732.807 1284.55 730.103 1284.55 727.275V727.275Z" fill="black"/>
<path d="M1593.8 452.617C1595.21 451.203 1596.2 449.414 1596.65 447.469L1614.73 369.064C1615.54 365.478 1614.46 361.728 1611.87 359.126C1609.27 356.524 1605.51 355.446 1601.93 356.274L1523.52 374.336C1521.57 374.789 1519.79 375.774 1518.38 377.188L1243.72 651.84C1239.55 656.012 1239.55 662.762 1243.72 666.934L1304.05 727.276C1306.05 729.276 1308.77 730.401 1311.6 730.401C1314.43 730.401 1317.14 729.276 1319.14 727.276L1593.8 452.617Z" fill="black"/>
<path opacity="0.2" d="M1611.87 359.126C1609.27 356.524 1605.51 355.446 1601.93 356.274L1523.52 374.336C1521.57 374.789 1519.79 375.774 1518.38 377.188L1243.72 651.84C1239.55 656.012 1239.55 662.762 1243.72 666.934L1304.05 727.276C1306.05 729.276 1308.77 730.401 1311.6 730.401C1314.43 730.401 1317.14 729.276 1319.14 727.276L1593.8 452.617C1595.21 451.203 1596.2 449.414 1596.65 447.469L1614.73 369.064C1615.54 365.477 1614.46 361.727 1611.87 359.126V359.126ZM1604.32 366.665L1586.26 445.07L1311.6 719.729L1251.26 659.386L1525.92 384.735L1604.32 366.665V366.665Z" fill="white"/>
<g filter="url(#filter2_d)">
<path d="M1273.88 697.104C1269.72 692.932 1269.72 686.183 1273.88 682.011L1467.12 488.787C1471.29 484.623 1478.04 484.623 1482.2 488.787C1486.37 492.951 1486.37 499.709 1482.2 503.873L1288.97 697.103C1284.8 701.261 1278.05 701.261 1273.88 697.104V697.104Z" fill="#EF4F4F"/>
<path d="M1274.23 682.364C1270.26 686.341 1270.26 692.773 1274.23 696.75C1278.21 700.713 1284.64 700.712 1288.61 696.749L1481.84 503.52L1481.84 503.519C1485.82 499.551 1485.82 493.11 1481.84 489.141L1481.84 489.14C1477.88 485.172 1471.45 485.171 1467.47 489.141L1274.23 682.364ZM1274.23 682.364L1467.47 489.141L1274.23 682.364Z" stroke="black"/>
</g>
<path d="M1180.25 745.478H1270.76L1281.43 734.806C1283.43 732.806 1284.55 730.103 1284.55 727.275C1284.55 726.197 1284.39 725.15 1284.08 724.15H1201.58L1180.25 745.478V745.478Z" fill="black"/>
<path d="M1246.84 769.4H1156.33L1140.21 785.525C1138.73 787.009 1137.78 788.822 1137.35 790.728H1225.51L1246.84 769.4Z" fill="#EA0E24"/>
<path d="M1357.2 749.546L1221.44 613.784C1217.08 609.425 1210.01 609.425 1205.65 613.784L1183.02 636.408L1183.02 636.409C1178.66 640.775 1178.66 647.842 1183.02 652.194L1357.2 749.546ZM1357.2 749.546C1361.56 753.899 1361.56 760.981 1357.2 765.333L1334.58 787.958C1332.48 790.051 1329.64 791.229 1326.68 791.229C1323.72 791.229 1320.88 790.051 1318.78 787.958L1183.02 652.194L1357.2 749.546Z" fill="#DE1212" stroke="black"/>
<path d="M1188.33 825.321C1188.33 813.93 1183.89 803.213 1175.83 795.15C1159.19 778.509 1132.13 778.509 1115.49 795.15C1107.44 803.212 1103 813.93 1103 825.321C1103 836.711 1107.44 847.429 1115.49 855.492C1123.55 863.554 1134.27 867.992 1145.66 867.992C1157.06 867.992 1167.77 863.554 1175.83 855.492C1183.89 847.43 1188.33 836.711 1188.33 825.321V825.321Z" fill="black"/>
<g filter="url(#filter3_d)">
<path d="M1145.66 835.987C1151.55 835.987 1156.33 831.209 1156.33 825.316C1156.33 819.423 1151.55 814.645 1145.66 814.645C1139.77 814.645 1135 819.423 1135 825.316C1135 831.209 1139.77 835.987 1145.66 835.987Z" fill="#DE0101"/>
</g>
</g>
<defs>
<filter id="filter0_f" x="406" y="212" width="558.011" height="635.088" filterUnits="userSpaceOnUse" color-interpolation-filters="sRGB">
<feFlood flood-opacity="0" result="BackgroundImageFix"/>
<feBlend mode="normal" in="SourceGraphic" in2="BackgroundImageFix" result="shape"/>
<feGaussianBlur stdDeviation="2" result="effect1_foregroundBlur"/>
</filter>
<filter id="filter1_b" x="605.1" y="441.021" width="160.303" height="188.057" filterUnits="userSpaceOnUse" color-interpolation-filters="sRGB">
<feFlood flood-opacity="0" result="BackgroundImageFix"/>
<feGaussianBlur in="BackgroundImage" stdDeviation="2"/>
<feComposite in2="SourceAlpha" operator="in" result="effect1_backgroundBlur"/>
<feBlend mode="normal" in="SourceGraphic" in2="effect1_backgroundBlur" result="shape"/>
</filter>
<filter id="filter2_d" x="1265.76" y="480.664" width="224.568" height="224.558" filterUnits="userSpaceOnUse" color-interpolation-filters="sRGB">
<feFlood flood-opacity="0" result="BackgroundImageFix"/>
<feColorMatrix in="SourceAlpha" type="matrix" values="0 0 0 0 0 0 0 0 0 0 0 0 0 0 0 0 0 0 127 0"/>
<feOffset/>
<feGaussianBlur stdDeviation="2.5"/>
<feColorMatrix type="matrix" values="0 0 0 0 1 0 0 0 0 0 0 0 0 0 0 0 0 0 0.2 0"/>
<feBlend mode="normal" in2="BackgroundImageFix" result="effect1_dropShadow"/>
<feBlend mode="normal" in="SourceGraphic" in2="effect1_dropShadow" result="shape"/>
</filter>
<filter id="filter3_d" x="1131" y="814.645" width="29.328" height="29.342" filterUnits="userSpaceOnUse" color-interpolation-filters="sRGB">
<feFlood flood-opacity="0" result="BackgroundImageFix"/>
<feColorMatrix in="SourceAlpha" type="matrix" values="0 0 0 0 0 0 0 0 0 0 0 0 0 0 0 0 0 0 127 0"/>
<feOffset dy="4"/>
<feGaussianBlur stdDeviation="2"/>
<feColorMatrix type="matrix" values="0 0 0 0 0.854167 0 0 0 0 0 0 0 0 0 0 0 0 0 1 0"/>
<feBlend mode="normal" in2="BackgroundImageFix" result="effect1_dropShadow"/>
<feBlend mode="normal" in="SourceGraphic" in2="effect1_dropShadow" result="shape"/>
</filter>
<linearGradient id="paint0_linear" x1="1076" y1="0" x2="1076" y2="1024" gradientUnits="userSpaceOnUse">
<stop offset="0.138976" stop-color="#D72525" stop-opacity="0.9"/>
<stop offset="0.53617" stop-color="#3F3737"/>
<stop offset="0.816945" stop-color="#C11111" stop-opacity="0.78"/>
</linearGradient>
<radialGradient id="paint1_radial" cx="0" cy="0" r="1" gradientUnits="userSpaceOnUse" gradientTransform="translate(685.006 529.544) rotate(84.3267) scale(290.5 247.5)">
<stop stop-color="#916969"/>
<stop offset="1"/>
</radialGradient>
<linearGradient id="paint2_linear" x1="656.288" y1="240.467" x2="713.724" y2="818.621" gradientUnits="userSpaceOnUse">
<stop stop-color="#676864"/>
<stop offset="1" stop-color="#24251E" stop-opacity="0.35"/>
</linearGradient>
<linearGradient id="paint3_linear" x1="676.114" y1="443.071" x2="740.111" y2="885.161" gradientUnits="userSpaceOnUse">
<stop stop-color="#DF0000"/>
<stop offset="0.479629" stop-color="#BC713B"/>
<stop offset="1" stop-color="#6B0000" stop-opacity="0"/>
</linearGradient>
<linearGradient id="paint4_linear" x1="1488.28" y1="147.328" x2="1476.72" y2="248.672" gradientUnits="userSpaceOnUse">
<stop stop-color="#332A2A"/>
<stop offset="1" stop-color="#481212"/>
</linearGradient>
<clipPath id="clip0">
<rect x="1103" y="356" width="511.992" height="511.992" fill="white"/>
</clipPath>
</defs>
</svg>
